<?xml version="1.0" standalone="no"?>
<!DOCTYPE svg PUBLIC "-//W3C//DTD SVG 20010904//EN"
 "http://www.w3.org/TR/2001/REC-SVG-20010904/DTD/svg10.dtd">
<svg version="1.0" xmlns="http://www.w3.org/2000/svg"
 width="236.000000pt" height="214.000000pt" viewBox="0 0 236.000000 214.000000"
 preserveAspectRatio="xMidYMid meet">
<metadata>
Created by potrace 1.16, written by Peter Selinger 2001-2019
</metadata>
<g transform="translate(0.000000,214.000000) scale(0.100000,-0.100000)"
fill="#000000" stroke="none">
<path d="M78 2020 c-25 -15 -24 -66 1 -80 12 -6 104 -10 229 -10 185 0 212 -2
230 -17 17 -15 48 -138 173 -698 83 -373 147 -681 143 -682 -39 -14 -93 -55
-118 -91 -23 -32 -31 -56 -34 -101 -5 -73 8 -116 53 -169 46 -53 105 -76 184
-70 145 10 236 151 188 292 l-16 46 306 0 c287 0 305 -1 298 -17 -17 -40 -28
-111 -21 -145 4 -20 21 -58 39 -84 41 -62 101 -94 174 -94 129 0 223 90 223
215 0 90 -34 151 -110 198 -35 22 -42 22 -550 27 l-514 5 -32 140 c-18 77 -33
146 -33 153 -1 9 107 12 509 12 l510 0 30 28 c23 20 71 121 195 405 91 208
165 391 165 407 0 15 -9 38 -19 51 l-19 24 -790 3 -791 2 -16 75 c-20 87 -46
130 -95 159 -32 19 -54 21 -255 24 -141 1 -226 -2 -237 -8z m2122 -352 c0 -2
-71 -165 -158 -363 l-157 -360 -510 0 -509 0 -81 363 -81 362 748 0 c411 0
748 -1 748 -2z m-1203 -1245 c25 -16 53 -71 53 -103 0 -37 -32 -91 -64 -111
-84 -51 -196 14 -196 113 0 37 34 90 70 110 38 20 98 16 137 -9z m968 13 c68
-29 95 -118 55 -183 -54 -89 -175 -81 -221 14 -19 39 -20 50 -10 82 13 46 49
81 93 91 47 11 45 11 83 -4z"/>
</g>
</svg>
